<?xml version="1.0" encoding="UTF-8"?>
<!DOCTYPE svg PUBLIC "-//W3C//DTD SVG 1.1//EN" "http://www.w3.org/Graphics/SVG/1.1/DTD/svg11.dtd">
<!-- Creator: CorelDRAW -->
<svg xmlns="http://www.w3.org/2000/svg" xml:space="preserve" width="9330.97cm" height="12075.4cm" style="shape-rendering:geometricPrecision; text-rendering:geometricPrecision; image-rendering:optimizeQuality; fill-rule:evenodd; clip-rule:evenodd"
viewBox="0 0 9330.97 12075.4">
 <defs>
  <style type="text/css">
   <![CDATA[
    .str0 {stroke:#C2C1C1;stroke-width:30.4953}
    .fil0 {fill:#57C7ED}
    .fil1 {fill:#DEDEDD}
    .fil2 {fill:white}
   ]]>
  </style>
 </defs>
 <g id="Layer_x0020_1">
  <metadata id="CorelCorpID_0Corel-Layer"/>
  <g id="_179458248">
   <path id="_179451000" class="fil0" d="M4507.72 2100.25c-315.766,0 -571.752,255.986 -571.752,571.752 0,315.766 255.986,571.752 571.752,571.752 315.766,0 571.752,-255.986 571.752,-571.752 0,-315.766 -255.986,-571.752 -571.752,-571.752z"/>
   <path id="_179458176" class="fil1 str0" d="M4392.53 2528.56c166.09,0 300.787,91.0753 300.787,203.384 0,56.3273 -33.888,107.308 -88.6161,144.144l-33.4817 108.717 -87.164 -59.076c-28.8616,6.22785 -59.6119,9.60325 -91.5248,9.60325 -166.09,0 -300.782,-91.0796 -300.782,-203.388 0,-112.309 134.692,-203.384 300.782,-203.384z"/>
   <path id="_179452512" class="fil1 str0" d="M4560.38 2392.42c202.161,0 366.103,110.857 366.103,247.554 0,68.5582 -41.2438,130.612 -107.857,175.447l-40.7555 132.323 -106.094 -71.9077c-35.1284,7.58493 -72.5517,11.695 -111.397,11.695 -202.161,0 -366.103,-110.861 -366.103,-247.558 0,-136.697 163.942,-247.554 366.103,-247.554z"/>
   <rect id="_179452104" class="fil2" x="4326.77" y="2545.28" width="481.166" height="28.4561" rx="72.3096" ry="72.3096"/>
   <rect id="_179458992" class="fil2" x="4326.77" y="2601.06" width="285.91" height="28.4561" rx="72.3096" ry="72.3096"/>
   <rect id="_179451240" class="fil2" x="4319.79" y="2656.85" width="481.166" height="28.4561" rx="72.3096" ry="72.3096"/>
  </g>
 </g>
</svg>
